<svg width="151" height="39" viewBox="0 0 151 39" fill="none" xmlns="http://www.w3.org/2000/svg">
<path d="M0 38.2374V37.2025L0.833427 36.9846C2.05579 36.5852 2.66697 35.6774 2.66697 34.2612C2.66697 33.0265 2.66697 31.7919 2.66697 30.5573C2.70401 29.2863 2.72253 28.0335 2.72253 26.7989V6.10056C2.72253 5.33799 2.59288 4.77514 2.3336 4.41201C2.07431 4.01257 1.57425 3.72207 0.833427 3.5405L0 3.32262V2.28771L9.72331 0L10.4456 0.490224L10.2234 8.17039V34.2612C10.2604 34.9874 10.4086 35.5866 10.6679 36.0587C10.9642 36.4944 11.4642 36.8031 12.168 36.9846L12.9459 37.2025V38.2374H0Z" fill="white"/>
<path d="M28.2406 39C25.4995 39 23.0919 38.4371 21.0175 37.3115C18.9803 36.1858 17.3875 34.588 16.2392 32.5182C15.128 30.4483 14.5724 27.979 14.5724 25.1103C14.5724 22.2416 15.165 19.7723 16.3504 17.7025C17.5727 15.6327 19.2025 14.0531 21.2398 12.9637C23.3141 11.838 25.6477 11.2751 28.2406 11.2751C30.8335 11.2751 33.1485 11.838 35.1858 12.9637C37.2601 14.0531 38.8899 15.6327 40.0752 17.7025C41.2976 19.736 41.9088 22.2053 41.9088 25.1103C41.9088 27.979 41.3346 30.4665 40.1864 32.5726C39.0751 34.6425 37.5009 36.2402 35.4636 37.3659C33.4263 38.4553 31.0187 39 28.2406 39ZM28.2406 37.4749C29.5741 37.4749 30.6483 37.1299 31.4632 36.4399C32.3151 35.7137 32.9263 34.4609 33.2967 32.6816C33.6671 30.9022 33.8523 28.4148 33.8523 25.2193C33.8523 21.9874 33.6671 19.4818 33.2967 17.7025C32.9263 15.8869 32.3151 14.6341 31.4632 13.9441C30.6483 13.2179 29.5741 12.8547 28.2406 12.8547C26.9071 12.8547 25.8329 13.2179 25.018 13.9441C24.2031 14.6341 23.5919 15.8869 23.1845 17.7025C22.814 19.4818 22.6288 21.9874 22.6288 25.2193C22.6288 28.4148 22.814 30.9022 23.1845 32.6816C23.5919 34.4609 24.2031 35.7137 25.018 36.4399C25.8329 37.1299 26.9071 37.4749 28.2406 37.4749Z" fill="white"/>
<path d="M57.2369 39C54.7181 39 52.4401 38.4735 50.4028 37.4204C48.3655 36.331 46.7542 34.7696 45.5689 32.736C44.4206 30.6662 43.8465 28.1606 43.8465 25.2193C43.8465 22.2779 44.4947 19.7723 45.7912 17.7025C47.0876 15.6327 48.81 14.0531 50.9584 12.9637C53.1438 11.838 55.533 11.2751 58.1259 11.2751C60.2372 11.2751 62.0337 11.6201 63.5154 12.3101C64.997 13 66.1268 13.8897 66.9046 14.979C67.6825 16.0321 68.0714 17.1578 68.0714 18.3561C68.0714 19.3729 67.7566 20.1536 67.1269 20.6983C66.5342 21.243 65.7564 21.5154 64.7933 21.5154C63.7561 21.5154 62.9042 21.1522 62.2375 20.426C61.6078 19.6997 61.2373 18.7737 61.1262 17.648C61.0892 16.9218 61.0892 16.3045 61.1262 15.7961C61.2003 15.2877 61.2003 14.7975 61.1262 14.3254C60.9781 13.7081 60.7188 13.2905 60.3483 13.0726C60.015 12.8547 59.5334 12.7458 58.9037 12.7458C56.5701 12.7458 54.7736 13.6718 53.5142 15.5237C52.2919 17.3394 51.6807 20.2989 51.6807 24.4022C51.6807 27.9246 52.366 30.6299 53.7365 32.5182C55.107 34.4064 57.2369 35.3506 60.1261 35.3506C61.83 35.3506 63.2376 35.0419 64.3488 34.4246C65.46 33.7709 66.4787 32.845 67.4047 31.6466L68.2937 32.3003C67.3677 34.479 65.9416 36.1494 64.0154 37.3115C62.1263 38.4371 59.8668 39 57.2369 39Z" fill="white"/>
<path d="M77.5907 39C75.4794 39 73.6829 38.419 72.2012 37.257C70.7566 36.0587 70.0343 34.352 70.0343 32.1369C70.0343 30.3939 70.8863 28.7961 72.5902 27.3436C74.3311 25.8547 77.0536 24.7654 80.7578 24.0754C81.3875 23.9302 82.1098 23.8031 82.9247 23.6941C83.7766 23.5489 84.61 23.4036 85.4249 23.2584V19.3911C85.4249 16.9218 85.1101 15.2151 84.4804 14.2709C83.8507 13.3268 82.8506 12.8547 81.4801 12.8547H81.3134C80.4614 12.8547 79.7762 13.1271 79.2576 13.6718C78.776 14.1802 78.4612 15.0335 78.313 16.2318L78.1463 16.9399C78.0352 18.3925 77.6463 19.4637 76.9796 20.1536C76.3128 20.8073 75.4794 21.1341 74.4793 21.1341C73.5532 21.1341 72.7754 20.8617 72.1457 20.317C71.553 19.736 71.2567 18.9916 71.2567 18.0838C71.2567 16.595 71.7753 15.3422 72.8124 14.3254C73.8496 13.3087 75.2201 12.5461 76.924 12.0377C78.6649 11.5293 80.5355 11.2751 82.5357 11.2751C85.8324 11.2751 88.3512 12.0559 90.0921 13.6173C91.8331 15.1788 92.7035 17.7207 92.7035 21.243V33.3897C92.7035 34.9511 93.4629 35.7318 94.9816 35.7318H96.2595L96.8151 36.331C96.1484 37.1662 95.4075 37.8017 94.5926 38.2374C93.7777 38.7095 92.6665 38.9455 91.2589 38.9455C89.6662 38.9455 88.3882 38.5824 87.4252 37.8561C86.4991 37.0936 85.888 36.095 85.5916 34.8603C84.4063 36.095 83.2395 37.0936 82.0912 37.8561C80.943 38.6187 79.4428 39 77.5907 39ZM80.8133 35.514C81.5541 35.514 82.2579 35.3506 82.9247 35.0237C83.5914 34.6969 84.4248 34.1522 85.4249 33.3897V24.6746C84.4619 24.8198 83.4803 25.0014 82.4802 25.2193C80.8874 25.5824 79.591 26.2542 78.5909 27.2346C77.6278 28.2151 77.1462 29.5405 77.1462 31.2109C77.1462 32.6634 77.4796 33.7528 78.1463 34.479C78.8501 35.169 79.7391 35.514 80.8133 35.514Z" fill="white"/>
<path d="M97.0747 38.2374V37.2025L97.9081 36.9846C99.1305 36.5852 99.7417 35.6774 99.7417 34.2612C99.7417 33.0265 99.7417 31.7919 99.7417 30.5573C99.7787 29.2863 99.7972 28.0335 99.7972 26.7989V6.10056C99.7972 5.33799 99.6676 4.77514 99.4083 4.41201C99.149 4.01257 98.6489 3.72207 97.9081 3.5405L97.0747 3.32262V2.28771L106.798 0L107.52 0.490224L107.298 8.17039V34.2612C107.335 34.9874 107.483 35.5866 107.743 36.0587C108.039 36.4944 108.539 36.8031 109.243 36.9846L110.021 37.2025V38.2374H97.0747Z" fill="white"/>
<path d="M111.536 38.2374V37.2025L112.369 36.9846C113.592 36.5852 114.203 35.6774 114.203 34.2612C114.203 33.0265 114.203 31.7919 114.203 30.5573C114.24 29.2863 114.258 28.0335 114.258 26.7989V6.10056C114.258 5.33799 114.129 4.77514 113.87 4.41201C113.61 4.01257 113.11 3.72207 112.369 3.5405L111.536 3.32262V2.28771L121.259 0L121.982 0.490224L121.759 8.17039V34.2612C121.796 34.9874 121.945 35.5866 122.204 36.0587C122.5 36.4944 123 36.8031 123.704 36.9846L124.482 37.2025V38.2374H111.536Z" fill="white"/>
<path d="M139.777 11.2751C142.11 11.2751 144.11 11.7472 145.777 12.6913C147.444 13.6355 148.722 14.9427 149.611 16.6131C150.537 18.2472 151 20.1355 151 22.2779C151 22.75 150.981 23.2039 150.944 23.6397C150.907 24.0391 150.833 24.4204 150.722 24.7835H133.998C134.035 28.5237 134.739 31.2109 136.109 32.845C137.517 34.479 139.554 35.2961 142.221 35.2961C144.073 35.2961 145.573 35.0056 146.722 34.4246C147.87 33.8073 148.926 32.9539 149.889 31.8645L150.778 32.6816C149.667 34.6788 148.148 36.2402 146.222 37.3659C144.333 38.4553 142.073 39 139.443 39C136.813 39 134.498 38.4553 132.498 37.3659C130.498 36.2765 128.923 34.7151 127.775 32.6816C126.664 30.6117 126.108 28.1425 126.108 25.2737C126.108 22.2961 126.757 19.7723 128.053 17.7025C129.386 15.6327 131.09 14.0531 133.165 12.9637C135.276 11.838 137.48 11.2751 139.777 11.2751ZM139.499 12.8547C138.425 12.8547 137.48 13.1634 136.665 13.7807C135.887 14.3617 135.257 15.4148 134.776 16.9399C134.331 18.4288 134.072 20.5349 133.998 23.2584H143.944C144.351 19.5908 144.203 16.9399 143.499 15.3059C142.795 13.6718 141.462 12.8547 139.499 12.8547Z" fill="#80A0A0"/>
</svg>
