<svg width="80" height="21" viewBox="0 0 80 21" fill="none" xmlns="http://www.w3.org/2000/svg">
<path d="M0 20.5894V20.0321L0.441551 19.9148C1.08916 19.6997 1.41296 19.2109 1.41296 18.4483C1.41296 17.7835 1.41296 17.1187 1.41296 16.4539C1.43259 15.7696 1.4424 15.095 1.4424 14.4302V3.28492C1.4424 2.8743 1.37371 2.57123 1.23634 2.3757C1.09897 2.16061 0.83404 2.00419 0.441551 1.90642L0 1.78911V1.23184L5.15142 0L5.5341 0.263967L5.41635 4.39944V18.4483C5.43598 18.8394 5.51448 19.162 5.65185 19.4162C5.80884 19.6508 6.07377 19.817 6.44664 19.9148L6.85875 20.0321V20.5894H0Z" fill="#212425"/>
<path d="M14.9619 21C13.5097 21 12.2341 20.6969 11.1351 20.0908C10.0558 19.4846 9.21193 18.6243 8.60357 17.5098C8.01483 16.3953 7.72047 15.0656 7.72047 13.5209C7.72047 11.9763 8.03446 10.6466 8.66244 9.53212C9.31005 8.4176 10.1735 7.56704 11.2529 6.98045C12.3518 6.3743 13.5882 6.07123 14.9619 6.07123C16.3356 6.07123 17.5621 6.3743 18.6415 6.98045C19.7405 7.56704 20.6039 8.4176 21.2319 9.53212C21.8795 10.6271 22.2033 11.9567 22.2033 13.5209C22.2033 15.0656 21.8991 16.405 21.2908 17.5391C20.7021 18.6536 19.868 19.514 18.7887 20.1201C17.7093 20.7067 16.4337 21 14.9619 21ZM14.9619 20.1788C15.6684 20.1788 16.2375 19.993 16.6692 19.6215C17.1206 19.2304 17.4444 18.5559 17.6406 17.5978C17.8369 16.6397 17.935 15.3003 17.935 13.5796C17.935 11.8394 17.8369 10.4902 17.6406 9.53212C17.4444 8.55447 17.1206 7.87989 16.6692 7.50838C16.2375 7.11732 15.6684 6.92179 14.9619 6.92179C14.2554 6.92179 13.6863 7.11732 13.2546 7.50838C12.8228 7.87989 12.499 8.55447 12.2832 9.53212C12.0869 10.4902 11.9888 11.8394 11.9888 13.5796C11.9888 15.3003 12.0869 16.6397 12.2832 17.5978C12.499 18.5559 12.8228 19.2304 13.2546 19.6215C13.6863 19.993 14.2554 20.1788 14.9619 20.1788Z" fill="#212425"/>
<path d="M30.3242 21C28.9897 21 27.7828 20.7165 26.7035 20.1494C25.6241 19.5628 24.7705 18.7221 24.1425 17.6271C23.5341 16.5126 23.2299 15.1634 23.2299 13.5796C23.2299 11.9958 23.5734 10.6466 24.2602 9.53212C24.9471 8.4176 25.8596 7.56704 26.9978 6.98045C28.1557 6.3743 29.4215 6.07123 30.7952 6.07123C31.9138 6.07123 32.8655 6.25698 33.6505 6.62849C34.4355 7 35.0341 7.47905 35.4462 8.06564C35.8583 8.63268 36.0643 9.23883 36.0643 9.88408C36.0643 10.4316 35.8975 10.852 35.5639 11.1453C35.2499 11.4385 34.8378 11.5852 34.3276 11.5852C33.7781 11.5852 33.3267 11.3897 32.9735 10.9986C32.6399 10.6075 32.4436 10.1089 32.3848 9.50279C32.3651 9.11173 32.3651 8.77933 32.3848 8.50559C32.424 8.23184 32.424 7.96788 32.3848 7.71369C32.3063 7.38128 32.1689 7.15642 31.9726 7.03911C31.796 6.92179 31.5409 6.86313 31.2073 6.86313C29.9709 6.86313 29.0191 7.36173 28.3519 8.35894C27.7043 9.33659 27.3805 10.9302 27.3805 13.1397C27.3805 15.0363 27.7436 16.493 28.4697 17.5098C29.1958 18.5265 30.3242 19.0349 31.8549 19.0349C32.7576 19.0349 33.5033 18.8687 34.0921 18.5363C34.6808 18.1844 35.2205 17.6858 35.7111 17.0405L36.1821 17.3925C35.6915 18.5656 34.9359 19.4651 33.9155 20.0908C32.9146 20.6969 31.7175 21 30.3242 21Z" fill="#212425"/>
<path d="M41.1077 21C39.9891 21 39.0373 20.6872 38.2523 20.0615C37.487 19.4162 37.1043 18.4972 37.1043 17.3045C37.1043 16.3659 37.5556 15.5056 38.4584 14.7235C39.3807 13.9218 40.8231 13.3352 42.7856 12.9637C43.1192 12.8855 43.5019 12.817 43.9336 12.7584C44.385 12.6802 44.8265 12.602 45.2582 12.5237V10.4413C45.2582 9.11173 45.0914 8.19274 44.7578 7.68436C44.4242 7.17598 43.8943 6.92179 43.1682 6.92179H43.0799C42.6286 6.92179 42.2655 7.06843 41.9908 7.36173C41.7357 7.63547 41.5688 8.09497 41.4903 8.74022L41.402 9.12151C41.3432 9.90363 41.1371 10.4804 40.7839 10.852C40.4306 11.2039 39.9891 11.3799 39.4592 11.3799C38.9686 11.3799 38.5565 11.2332 38.2229 10.9399C37.9089 10.6271 37.7519 10.2263 37.7519 9.73743C37.7519 8.93575 38.0266 8.26117 38.5761 7.71369C39.1256 7.1662 39.8517 6.75559 40.7544 6.48184C41.6768 6.2081 42.6678 6.07123 43.7275 6.07123C45.4741 6.07123 46.8086 6.49162 47.7309 7.3324C48.6533 8.17318 49.1145 9.5419 49.1145 11.4385V17.979C49.1145 18.8198 49.5168 19.2402 50.3214 19.2402H50.9984L51.2928 19.5628C50.9395 20.0126 50.547 20.3547 50.1153 20.5894C49.6836 20.8436 49.0948 20.9707 48.3491 20.9707C47.5052 20.9707 46.8282 20.7751 46.318 20.3841C45.8274 19.9735 45.5036 19.4358 45.3466 18.7709C44.7186 19.4358 44.1004 19.9735 43.492 20.3841C42.8837 20.7947 42.0889 21 41.1077 21ZM42.815 19.1229C43.2075 19.1229 43.5804 19.0349 43.9336 18.8589C44.2868 18.683 44.7284 18.3897 45.2582 17.979V13.2863C44.748 13.3645 44.228 13.4623 43.6981 13.5796C42.8542 13.7751 42.1674 14.1369 41.6375 14.6648C41.1273 15.1927 40.8722 15.9064 40.8722 16.8059C40.8722 17.588 41.0488 18.1746 41.402 18.5656C41.7749 18.9371 42.2459 19.1229 42.815 19.1229Z" fill="#212425"/>
<path d="M51.4303 20.5894V20.0321L51.8718 19.9148C52.5195 19.6997 52.8433 19.2109 52.8433 18.4483C52.8433 17.7835 52.8433 17.1187 52.8433 16.4539C52.8629 15.7696 52.8727 15.095 52.8727 14.4302V3.28492C52.8727 2.8743 52.804 2.57123 52.6666 2.3757C52.5293 2.16061 52.2643 2.00419 51.8718 1.90642L51.4303 1.78911V1.23184L56.5817 0L56.9644 0.263967L56.8467 4.39944V18.4483C56.8663 18.8394 56.9448 19.162 57.0821 19.4162C57.2391 19.6508 57.5041 19.817 57.8769 19.9148L58.2891 20.0321V20.5894H51.4303Z" fill="#212425"/>
<path d="M59.0919 20.5894V20.0321L59.5334 19.9148C60.181 19.6997 60.5049 19.2109 60.5049 18.4483C60.5049 17.7835 60.5049 17.1187 60.5049 16.4539C60.5245 15.7696 60.5343 15.095 60.5343 14.4302V3.28492C60.5343 2.8743 60.4656 2.57123 60.3282 2.3757C60.1909 2.16061 59.9259 2.00419 59.5334 1.90642L59.0919 1.78911V1.23184L64.2433 0L64.626 0.263967L64.5082 4.39944V18.4483C64.5279 18.8394 64.6064 19.162 64.7437 19.4162C64.9007 19.6508 65.1657 19.817 65.5385 19.9148L65.9506 20.0321V20.5894H59.0919Z" fill="#212425"/>
<path d="M74.0538 6.07123C75.2901 6.07123 76.3498 6.32542 77.2329 6.8338C78.116 7.34218 78.7931 8.04609 79.2641 8.94553C79.7547 9.82542 80 10.8422 80 11.9958C80 12.25 79.9902 12.4944 79.9706 12.729C79.9509 12.9441 79.9117 13.1494 79.8528 13.345H70.9924C71.012 15.3589 71.3849 16.8059 72.111 17.6858C72.8567 18.5656 73.936 19.0056 75.349 19.0056C76.3302 19.0056 77.125 18.8492 77.7334 18.5363C78.3417 18.2039 78.901 17.7444 79.4113 17.1578L79.8823 17.5978C79.2935 18.6732 78.4889 19.514 77.4684 20.1201C76.4676 20.7067 75.2705 21 73.8772 21C72.4838 21 71.2573 20.7067 70.1976 20.1201C69.1379 19.5335 68.3038 18.6927 67.6955 17.5978C67.1067 16.4832 66.8124 15.1536 66.8124 13.6089C66.8124 12.0056 67.1558 10.6466 67.8426 9.53212C68.5491 8.4176 69.4518 7.56704 70.5508 6.98045C71.6694 6.3743 72.8371 6.07123 74.0538 6.07123ZM73.9066 6.92179C73.3375 6.92179 72.8371 7.08799 72.4053 7.42039C71.9932 7.73324 71.6596 8.30028 71.4045 9.12151C71.169 9.92318 71.0316 11.0573 70.9924 12.5237H76.2615C76.4774 10.5489 76.3989 9.12151 76.026 8.24162C75.6532 7.36173 74.9467 6.92179 73.9066 6.92179Z" fill="#00615D"/>
</svg>
